<?xml version="1.0" encoding="iso-8859-1"?>
<!-- Generator: Adobe Illustrator 19.0.0, SVG Export Plug-In . SVG Version: 6.00 Build 0)  -->
<svg version="1.1" id="Capa_1" xmlns="http://www.w3.org/2000/svg" xmlns:xlink="http://www.w3.org/1999/xlink" x="0px" y="0px"
	 viewBox="0 0 512 512" style="enable-background:new 0 0 512 512;" xml:space="preserve">
<g>
	<g>
		<path d="M511.546,252.363l-29.999-119.997c-0.996-3.987-3.586-7.391-7.163-9.416L262.389,2.953
			c-4.604-2.606-10.238-2.594-14.831,0.03L37.564,122.98c-3.55,2.028-6.119,5.418-7.11,9.385L0.455,252.362
			c-2.367,9.469,4.811,18.638,14.552,18.638h44.999v224.994c0,8.284,6.716,15,15,15h361.991c8.284,0,15-6.716,15-15V270.999h44.999
			C506.754,271.001,513.91,261.814,511.546,252.363z M235.789,405.998l-53.786,53.786V352.211L235.789,405.998z M203.215,331
			h107.571l-53.786,53.786L203.215,331z M203.215,480.996l53.786-53.786l53.786,53.786H203.215z M331.999,459.784l-53.786-53.786
			l53.786-53.786V459.784z M421.997,480.996h-59.998v0V331h15c8.284,0,15-6.716,15-15s-6.716-15-15-15
			c-16.376,0-231.564,0-239.994,0c-8.284,0-15,6.716-15,15s6.716,15,15,15h15v149.996H90.005V258.01l20.013-73.401l145.029-82.705
			l146.95,82.751l20,73.355V480.996z M448.454,241.001L448.454,241.001l-19.164-70.286c-1.055-3.87-3.616-7.156-7.111-9.125
			L262.361,71.592c-4.595-2.587-10.21-2.572-14.791,0.04L89.752,161.63c-3.46,1.973-5.993,5.242-7.041,9.084l-19.164,70.287h-29.33
			l23.787-95.15L255.036,33.263l198.969,112.623l23.778,95.115H448.454z"/>
	</g>
</g>
<g>
	<g>
		<path d="M316.999,181.004H195.003c-8.284,0-15,6.716-15,15v59.998c0,8.284,6.716,15,15,15h121.997c8.284,0,15-6.716,15-15v-59.998
			C331.999,187.719,325.283,181.004,316.999,181.004z M302,241.002h-91.998v-29.999H302V241.002z"/>
	</g>
</g>
<g>
</g>
<g>
</g>
<g>
</g>
<g>
</g>
<g>
</g>
<g>
</g>
<g>
</g>
<g>
</g>
<g>
</g>
<g>
</g>
<g>
</g>
<g>
</g>
<g>
</g>
<g>
</g>
<g>
</g>
</svg>
